<?xml version="1.0" standalone="no"?>
<!DOCTYPE svg PUBLIC "-//W3C//DTD SVG 20010904//EN"
 "http://www.w3.org/TR/2001/REC-SVG-20010904/DTD/svg10.dtd">
<svg version="1.0" xmlns="http://www.w3.org/2000/svg"
 width="512.000000pt" height="512.000000pt" viewBox="0 0 512.000000 512.000000"
 preserveAspectRatio="xMidYMid meet">
<metadata>
Created by potrace 1.11, written by Peter Selinger 2001-2013
</metadata>
<g transform="translate(0.000000,512.000000) scale(0.100000,-0.100000)"
fill="#000000" stroke="none">
<path d="M0 2663 c0 -2267 1 -2458 17 -2475 15 -17 15 -18 0 -18 -24 0 -21 -9
11 -43 l27 -30 -27 5 c-30 6 -35 -1 -16 -21 10 -11 10 -13 1 -7 -9 5 -13 -3
-13 -27 l0 -34 227 -6 c124 -4 1276 -7 2560 -7 l2333 0 0 2560 0 2560 -2560 0
-2560 0 0 -2457z m1438 1267 c155 -44 290 -137 362 -250 18 -28 34 -50 36 -50
1 0 17 21 35 46 117 171 302 271 519 281 235 12 442 -73 557 -227 l37 -49 60
62 c153 159 329 226 562 214 186 -9 337 -74 440 -191 54 -61 126 -205 149
-298 31 -129 35 -238 35 -955 0 -434 4 -732 10 -747 24 -65 122 -78 222 -28
l58 29 0 -249 0 -248 -46 -30 c-93 -59 -163 -75 -319 -74 -118 0 -150 4 -205
23 -161 56 -254 158 -307 338 -15 52 -18 144 -23 893 -5 822 -5 836 -26 880
-25 54 -50 77 -101 96 -127 45 -274 -28 -339 -168 l-29 -63 -3 -982 -2 -983
-305 0 -304 0 -3 1028 -3 1027 -24 48 c-44 91 -141 126 -256 92 -77 -22 -161
-103 -196 -190 l-24 -60 -3 -972 -2 -973 -305 0 -305 0 -2 1003 -3 1002 -29
58 c-49 101 -137 143 -245 117 -190 -45 -213 -274 -46 -449 l56 -59 -68 -54
c-37 -30 -132 -105 -210 -167 l-143 -112 -29 20 c-109 78 -227 258 -273 417
-31 106 -33 333 -4 434 84 290 306 483 623 540 86 16 339 4 421 -20z"/>
</g>
</svg>
